<?xml version="1.0" standalone="no"?>
<!DOCTYPE svg PUBLIC "-//W3C//DTD SVG 20010904//EN"
 "http://www.w3.org/TR/2001/REC-SVG-20010904/DTD/svg10.dtd">
<svg version="1.0" xmlns="http://www.w3.org/2000/svg"
 width="4500.000000pt" height="4500.000000pt" viewBox="0 0 4500.000000 4500.000000"
 preserveAspectRatio="xMidYMid meet">
<metadata>
Created by potrace 1.11, written by Peter Selinger 2001-2013
</metadata>
<g transform="translate(0.000000,4500.000000) scale(0.100000,-0.100000)"
fill="#000000" stroke="none">
<path d="M21835 44994 c-482 -20 -631 -27 -820 -40 -2224 -146 -4373 -609
-6440 -1386 -3454 -1299 -6560 -3452 -9006 -6244 -3270 -3733 -5206 -8411
-5524 -13344 -35 -547 -40 -738 -40 -1480 0 -742 5 -933 40 -1480 202 -3134
1059 -6188 2518 -8965 2125 -4047 5445 -7367 9492 -9492 2777 -1459 5831
-2316 8965 -2518 547 -35 738 -40 1480 -40 742 0 933 5 1480 40 3134 202 6188
1059 8965 2518 4047 2125 7367 5445 9492 9492 1459 2777 2316 5831 2518 8965
35 547 40 738 40 1480 0 742 -5 933 -40 1480 -202 3134 -1059 6188 -2518 8965
-2125 4047 -5445 7367 -9492 9492 -2779 1460 -5831 2316 -8970 2518 -498 32
-659 36 -1350 39 -390 2 -746 2 -790 0z m-5155 -8224 c1119 -57 2029 -362
2796 -937 916 -686 1580 -1774 1923 -3148 95 -383 157 -745 208 -1220 16 -150
17 -685 21 -8200 2 -5735 0 -8094 -8 -8230 -45 -780 -224 -1618 -496 -2314
-499 -1278 -1287 -2185 -2349 -2706 -703 -345 -1503 -515 -2425 -515 -1974 0
-3446 795 -4359 2355 -507 865 -834 1996 -910 3149 -15 221 -15 16033 -1
16266 88 1388 550 2744 1250 3665 625 825 1433 1369 2440 1646 563 154 1252
222 1910 189z m12980 0 c1120 -57 2028 -362 2796 -937 1115 -835 1861 -2281
2094 -4053 57 -435 54 -291 57 -2677 l4 -2203 -1981 0 -1980 0 0 2148 c0 1352
-4 2188 -10 2257 -25 278 -66 484 -141 709 -165 500 -446 800 -854 912 -95 27
-111 28 -315 28 -203 0 -220 -2 -315 -27 -571 -157 -912 -713 -995 -1622 -14
-152 -14 -16508 0 -16660 25 -277 66 -484 140 -707 87 -261 197 -454 353 -615
221 -229 477 -333 817 -333 341 0 596 104 819 335 272 281 437 725 491 1320 6
70 10 1027 10 2623 l0 2512 -790 0 -790 0 0 1655 0 1655 2770 0 2770 0 0
-6650 0 -6650 -1174 0 c-1109 0 -1174 1 -1181 18 -4 9 -108 287 -232 617 -124
330 -228 606 -232 613 -5 9 -37 -21 -102 -95 -389 -447 -830 -793 -1325 -1041
-410 -205 -785 -320 -1239 -379 -192 -25 -713 -24 -965 1 -852 84 -1514 316
-2124 744 -1145 804 -1843 2311 -1976 4267 -14 210 -14 16507 1 16735 79 1259
463 2488 1064 3400 638 969 1512 1605 2625 1911 563 154 1252 222 1910 189z"/>
<path d="M16120 32945 c-619 -117 -993 -685 -1080 -1640 -14 -159 -14 -16169
1 -16342 24 -285 91 -587 181 -814 117 -297 282 -515 498 -657 360 -238 899
-238 1258 -2 356 235 565 651 669 1330 17 109 18 542 21 8230 2 5787 0 8152
-8 8245 -23 279 -64 488 -141 719 -165 500 -449 803 -854 912 -88 23 -122 27
-285 30 -131 2 -207 -1 -260 -11z"/>
</g>
</svg>
